<?xml version="1.0" encoding="UTF-8" standalone="no"?>
<!DOCTYPE svg PUBLIC "-//W3C//DTD SVG 1.1//EN" "http://www.w3.org/Graphics/SVG/1.1/DTD/svg11.dtd">
<svg version="1.1" xmlns="http://www.w3.org/2000/svg" xmlns:xlink="http://www.w3.org/1999/xlink" preserveAspectRatio="xMidYMid meet" viewBox="76.0166543688756 92.80321152489341 489.9666912622488 268.9555590321761" width="485.97" height="264.96"><defs><path d="M214.78 130.26L315.7 167.6L315.7 275.01L214.78 230.26L214.78 130.26Z" id="bLyC0BEuW"></path><path d="M427.31 130.26L326.39 167.6L326.39 275.01L427.31 230.26L427.31 130.26Z" id="a1y5R9Qe5C"></path><path d="M217 120.3L320.55 93.8L424 120.3L320.55 158.73L217 120.3Z" id="a3YDzhezYs"></path><path d="M77.02 211.44L177.94 248.78L177.94 356.19L77.02 311.44L77.02 211.44Z" id="bI3cvNsX4"></path><path d="M289.55 211.44L188.62 248.78L188.62 356.19L289.55 311.44L289.55 211.44Z" id="anU0FuwEv"></path><path d="M79.23 201.48L182.79 174.99L286.24 201.48L182.79 239.91L79.23 201.48Z" id="cBS8BBsiv"></path><path d="M350.45 214.01L451.38 251.35L451.38 358.76L350.45 314.01L350.45 214.01Z" id="f1U73FWTOE"></path><path d="M562.98 214.01L462.06 251.35L462.06 358.76L562.98 314.01L562.98 214.01Z" id="dKS59Q095"></path><path d="M352.67 204.05L456.22 177.55L559.68 204.05L456.22 242.48L352.67 204.05Z" id="bXMgNdzZ9"></path></defs><g><g><use xlink:href="#bLyC0BEuW" opacity="1" fill="#545050" fill-opacity="1"></use><g><use xlink:href="#bLyC0BEuW" opacity="1" fill-opacity="0" stroke="#a6a8ae" stroke-width="2" stroke-opacity="1"></use></g></g><g><use xlink:href="#a1y5R9Qe5C" opacity="1" fill="#545050" fill-opacity="1"></use><g><use xlink:href="#a1y5R9Qe5C" opacity="1" fill-opacity="0" stroke="#a6a8ae" stroke-width="2" stroke-opacity="1"></use></g></g><g><use xlink:href="#a3YDzhezYs" opacity="1" fill="#545050" fill-opacity="1"></use><g><use xlink:href="#a3YDzhezYs" opacity="1" fill-opacity="0" stroke="#a6a8ae" stroke-width="2" stroke-opacity="1"></use></g></g><g><use xlink:href="#bI3cvNsX4" opacity="1" fill="#545050" fill-opacity="1"></use><g><use xlink:href="#bI3cvNsX4" opacity="1" fill-opacity="0" stroke="#a6a8ae" stroke-width="2" stroke-opacity="1"></use></g></g><g><use xlink:href="#anU0FuwEv" opacity="1" fill="#545050" fill-opacity="1"></use><g><use xlink:href="#anU0FuwEv" opacity="1" fill-opacity="0" stroke="#a6a8ae" stroke-width="2" stroke-opacity="1"></use></g></g><g><use xlink:href="#cBS8BBsiv" opacity="1" fill="#545050" fill-opacity="1"></use><g><use xlink:href="#cBS8BBsiv" opacity="1" fill-opacity="0" stroke="#a6a8ae" stroke-width="2" stroke-opacity="1"></use></g></g><g><use xlink:href="#f1U73FWTOE" opacity="1" fill="#545050" fill-opacity="1"></use><g><use xlink:href="#f1U73FWTOE" opacity="1" fill-opacity="0" stroke="#a6a8ae" stroke-width="2" stroke-opacity="1"></use></g></g><g><use xlink:href="#dKS59Q095" opacity="1" fill="#545050" fill-opacity="1"></use><g><use xlink:href="#dKS59Q095" opacity="1" fill-opacity="0" stroke="#a6a8ae" stroke-width="2" stroke-opacity="1"></use></g></g><g><use xlink:href="#bXMgNdzZ9" opacity="1" fill="#545050" fill-opacity="1"></use><g><use xlink:href="#bXMgNdzZ9" opacity="1" fill-opacity="0" stroke="#a6a8ae" stroke-width="2" stroke-opacity="1"></use></g></g></g></svg>