<svg xmlns="http://www.w3.org/2000/svg" xmlns:xlink="http://www.w3.org/1999/xlink" viewBox="76.017 92.803 489.967 268.956" width="485.97" height="264.96"><defs><path d="M214.78 130.26L315.7 167.6v107.41l-100.92-44.75v-100z" id="a"/><path d="M427.31 130.26L326.39 167.6v107.41l100.92-44.75v-100z" id="b"/><path d="M217 120.3l103.55-26.5L424 120.3l-103.45 38.43L217 120.3z" id="c"/><path d="M77.02 211.44l100.92 37.34v107.41L77.02 311.44v-100z" id="d"/><path d="M289.55 211.44l-100.93 37.34v107.41l100.93-44.75v-100z" id="e"/><path d="M79.23 201.48l103.56-26.49 103.45 26.49-103.45 38.43-103.56-38.43z" id="f"/><path d="M350.45 214.01l100.93 37.34v107.41l-100.93-44.75v-100z" id="g"/><path d="M562.98 214.01l-100.92 37.34v107.41l100.92-44.75v-100z" id="h"/><path d="M352.67 204.05l103.55-26.5 103.46 26.5-103.46 38.43-103.55-38.43z" id="i"/></defs><use xlink:href="#a" fill="#545050"/><use xlink:href="#a" fill-opacity="0" stroke="#a6a8ae" stroke-width="2"/><use xlink:href="#b" fill="#545050"/><use xlink:href="#b" fill-opacity="0" stroke="#a6a8ae" stroke-width="2"/><use xlink:href="#c" fill="#545050"/><use xlink:href="#c" fill-opacity="0" stroke="#a6a8ae" stroke-width="2"/><use xlink:href="#d" fill="#545050"/><use xlink:href="#d" fill-opacity="0" stroke="#a6a8ae" stroke-width="2"/><use xlink:href="#e" fill="#545050"/><use xlink:href="#e" fill-opacity="0" stroke="#a6a8ae" stroke-width="2"/><use xlink:href="#f" fill="#545050"/><use xlink:href="#f" fill-opacity="0" stroke="#a6a8ae" stroke-width="2"/><use xlink:href="#g" fill="#545050"/><use xlink:href="#g" fill-opacity="0" stroke="#a6a8ae" stroke-width="2"/><use xlink:href="#h" fill="#545050"/><use xlink:href="#h" fill-opacity="0" stroke="#a6a8ae" stroke-width="2"/><use xlink:href="#i" fill="#545050"/><use xlink:href="#i" fill-opacity="0" stroke="#a6a8ae" stroke-width="2"/></svg>